<svg xmlns="http://www.w3.org/2000/svg" viewBox="0 0 960 540" role="img" aria-label="Contact and portfolio illustration">
  <defs>
    <linearGradient id="bg" x1="0" y1="0" x2="1" y2="1">
      <stop offset="0" stop-color="#0b0709"/>
      <stop offset="1" stop-color="#121214"/>
    </linearGradient>
    <linearGradient id="accent" x1="0" y1="0" x2="1" y2="1">
      <stop offset="0" stop-color="#ff3a44"/>
      <stop offset="1" stop-color="#9b101f"/>
    </linearGradient>
    <filter id="soft" x="-30%" y="-30%" width="160%" height="160%">
      <feGaussianBlur stdDeviation="18"/>
    </filter>
  </defs>

  <rect width="960" height="540" rx="28" fill="url(#bg)"/>
  <circle cx="210" cy="420" r="180" fill="url(#accent)" filter="url(#soft)" opacity="0.26"/>
  <circle cx="800" cy="120" r="160" fill="url(#accent)" filter="url(#soft)" opacity="0.22"/>

  <g transform="translate(140 120)">
    <rect x="0" y="0" width="680" height="300" rx="26" fill="#ffffff" opacity="0.06" stroke="#ff6a75" stroke-opacity="0.24"/>

    <g transform="translate(58 62)">
      <rect x="0" y="0" width="280" height="176" rx="22" fill="#ffffff" opacity="0.05" stroke="#ffffff" stroke-opacity="0.14"/>
      <path d="M34 48 h212 v96 h-212z" fill="#ffffff" opacity="0.06" stroke="#ffffff" stroke-opacity="0.14"/>
      <path d="M34 48 l106 72 l106-72" fill="none" stroke="#ff6a75" stroke-width="8" stroke-linecap="round" stroke-linejoin="round" opacity="0.75"/>
      <rect x="34" y="156" width="212" height="12" rx="6" fill="#ffffff" opacity="0.10"/>
    </g>

    <g transform="translate(388 62)">
      <rect x="0" y="0" width="234" height="176" rx="22" fill="#ffffff" opacity="0.05" stroke="#ffffff" stroke-opacity="0.14"/>
      <circle cx="64" cy="64" r="30" fill="url(#accent)" opacity="0.92"/>
      <path d="M50 64 h28" stroke="#ffffff" stroke-width="8" stroke-linecap="round" opacity="0.85"/>
      <path d="M64 50 v28" stroke="#ffffff" stroke-width="8" stroke-linecap="round" opacity="0.85"/>
      <rect x="110" y="50" width="96" height="12" rx="6" fill="#ffffff" opacity="0.12"/>
      <rect x="110" y="72" width="110" height="12" rx="6" fill="#ffffff" opacity="0.10"/>
      <rect x="20" y="130" width="194" height="12" rx="6" fill="#ffffff" opacity="0.10"/>
    </g>

    <rect x="58" y="264" width="564" height="14" rx="7" fill="#ffffff" opacity="0.09"/>
  </g>
</svg>

