<svg xmlns="http://www.w3.org/2000/svg" viewBox="0 0 600 760" role="img" aria-labelledby="title desc">
  <title id="title">InstaPay QR</title>
  <desc id="desc">InstaPay styled QR placeholder for fouadbeehtaher@instapay</desc>
  <rect width="600" height="760" rx="28" fill="#f7f7f7" />
  <rect x="30" y="30" width="540" height="700" rx="20" fill="#ffffff" stroke="#e1e1e1" />
  <rect x="90" y="120" width="420" height="420" rx="14" fill="#ffffff" stroke="#c7c7c7" />
  <g fill="#111">
    <rect x="120" y="150" width="30" height="30" />
    <rect x="150" y="150" width="30" height="30" />
    <rect x="210" y="150" width="30" height="30" />
    <rect x="270" y="150" width="30" height="30" />
    <rect x="330" y="150" width="30" height="30" />
    <rect x="390" y="150" width="30" height="30" />
    <rect x="450" y="150" width="30" height="30" />
    <rect x="120" y="210" width="30" height="30" />
    <rect x="180" y="210" width="30" height="30" />
    <rect x="240" y="210" width="30" height="30" />
    <rect x="300" y="210" width="30" height="30" />
    <rect x="360" y="210" width="30" height="30" />
    <rect x="420" y="210" width="30" height="30" />
    <rect x="450" y="210" width="30" height="30" />
    <rect x="120" y="270" width="30" height="30" />
    <rect x="150" y="270" width="30" height="30" />
    <rect x="240" y="270" width="30" height="30" />
    <rect x="300" y="270" width="30" height="30" />
    <rect x="360" y="270" width="30" height="30" />
    <rect x="420" y="270" width="30" height="30" />
    <rect x="450" y="270" width="30" height="30" />
    <rect x="120" y="330" width="30" height="30" />
    <rect x="180" y="330" width="30" height="30" />
    <rect x="240" y="330" width="30" height="30" />
    <rect x="330" y="330" width="30" height="30" />
    <rect x="390" y="330" width="30" height="30" />
    <rect x="450" y="330" width="30" height="30" />
    <rect x="120" y="390" width="30" height="30" />
    <rect x="180" y="390" width="30" height="30" />
    <rect x="210" y="390" width="30" height="30" />
    <rect x="270" y="390" width="30" height="30" />
    <rect x="330" y="390" width="30" height="30" />
    <rect x="420" y="390" width="30" height="30" />
    <rect x="450" y="390" width="30" height="30" />
    <rect x="120" y="450" width="30" height="30" />
    <rect x="150" y="450" width="30" height="30" />
    <rect x="240" y="450" width="30" height="30" />
    <rect x="300" y="450" width="30" height="30" />
    <rect x="360" y="450" width="30" height="30" />
    <rect x="390" y="450" width="30" height="30" />
    <rect x="450" y="450" width="30" height="30" />
  </g>
  <text x="300" y="610" text-anchor="middle" font-family="Segoe UI, Arial, sans-serif" font-size="24" fill="#3b3b3b">
    fouadbeehtaher@instapay
  </text>
  <text x="300" y="648" text-anchor="middle" font-family="Segoe UI, Arial, sans-serif" font-size="17" fill="#777">
    Replace with your original QR image if needed
  </text>
</svg>
