<svg xmlns="http://www.w3.org/2000/svg" width="64" height="64" viewBox="0 0 64 64" aria-hidden="true">
  <defs>
    <linearGradient id="t" x1="0" y1="0" x2="1" y2="1">
      <stop offset="0%" stop-color="#f59e0b"/>
      <stop offset="100%" stop-color="#ef4444"/>
    </linearGradient>
  </defs>
  <path d="M16 20h32a4 4 0 0 1 4 4v6a6 6 0 0 0 0 12v6a4 4 0 0 1-4 4H16a4 4 0 0 1-4-4v-6a6 6 0 0 0 0-12v-6a4 4 0 0 1 4-4z" fill="url(#t)" stroke="rgba(255,255,255,0.28)" stroke-width="2"/>
  <path d="M26 26h12" stroke="rgba(255,255,255,0.8)" stroke-width="3" stroke-linecap="round"/>
  <path d="M24 38h16" stroke="rgba(255,255,255,0.55)" stroke-width="3" stroke-linecap="round"/>
</svg>
